# xmcd CD database file
# Copyright (C) 1993-1998 Ti Kan
# 
# Track frame offsets:
#     150
#     13825
#     27812
#     39057
#     51827
#     65562
#     78385
#     91687
#     104980
#     119010
#     132482
#     145625
#     157850
#     170810
#     184015
#     197950
#     211252
#     226417
#     240460
#     252425
#     265577
#     278815
#     291027
# 
# Disc length: 4049 seconds
# 
# Revision: 1
# Processed by: cddbd v1.4b41PL1 Copyright (c) Steve Scherf et al.
# Submitted via: DiscPlay 4.0.4
# 
DISCID=480fcf17
DTITLE=Kokomo Arnold - Kokomo Arnold  Vol  2 (1935-1936)
DYEAR=1900
DGENRE=
TTITLE0=Southern Railroad Blues
TTITLE1=Bo Weavil Blues
TTITLE2=Busy Bootin'
TTITLE3=Let Your Money Talk
TTITLE4='Cause You're Dirty
TTITLE5=Tonic Head Blues
TTITLE6=Policy Wheel Blues
TTITLE7=Traveling Rambler Blues
TTITLE8=Stop, Look And Listen
TTITLE9=Doin' The Doopididy
TTITLE10=The Mule Laid Down And Died
TTITLE11=Big Leg Mama (John Russell Blues)
TTITLE12=Milk Cow Blues #3
TTITLE13=Milk Cow Blues #4
TTITLE14=Down And Out Blues
TTITLE15=Model T Woman Blues
TTITLE16=Jet Black Snake
TTITLE17=I'll Be Up Someday
TTITLE18=I Can't Get Enough Of That Stuff
TTITLE19=Desert Blues
TTITLE20=Bull Headed Woman Blues
TTITLE21=Sundown Blues
TTITLE22=The Honey Dripper
EXTD=
EXTT0=
EXTT1=
EXTT2=
EXTT3=
EXTT4=
EXTT5=
EXTT6=
EXTT7=
EXTT8=
EXTT9=
EXTT10=
EXTT11=
EXTT12=
EXTT13=
EXTT14=
EXTT15=
EXTT16=
EXTT17=
EXTT18=
EXTT19=
EXTT20=
EXTT21=
EXTT22=
PLAYORDER=
